<?xml version="1.0" encoding="UTF-8"?>
<svg id="Layer_1"
  xmlns="http://www.w3.org/2000/svg" viewBox="0 0 366.71 134.78">
  <defs>
    <style>.cls-1{fill:#0000fe;}</style>
  </defs>
  <path d="m35.23,57.79l-9.59-3.74c-5.17-2.45-7.07-4.69-7.07-9.66v-20.61c0-3.88,2.79-6.8,7.75-6.8,5.51,0,8.23,2.65,8.23,7.96v21.15h18.23v-22.99c0-6.8-2.24-12.24-6.73-16.26C41.49,2.83,35.03.79,26.59.79S11.29,3.03,6.8,7.52C2.24,12.01,0,17.66,0,24.46v22.44C0,59.69,5.17,66.56,16.87,70.84l10.2,3.67c5.51,2.24,8.3,5.85,8.3,10.81v25.1c0,4.62-3.33,8.23-8.16,8.23-5.44,0-8.37-3.67-8.37-8.64v-25.64H.41v27c0,7.14,2.38,12.85,7.21,17.07,4.83,4.22,11.36,6.33,19.59,6.33s14.69-2.31,19.59-6.87c4.83-4.56,7.28-10.75,7.28-18.57v-26.8c0-6.87-1.56-12.04-4.62-15.58-3.06-3.54-7.82-6.6-14.21-9.18Z"/>
  <path d="m92.7.79c-17.21,0-26.87,10.47-26.87,28.7v76.45c0,18.43,9.66,28.84,26.87,28.84s26.39-9.32,26.39-25.44v-35.71h-18.3v35.1c0,5.99-3.06,9.93-7.89,9.93s-8.37-3.94-8.37-9.93V26.7c0-5.92,3.47-9.73,8.37-9.73s7.89,3.74,7.89,9.73v31.22h18.3v-31.9c0-16.12-9.52-25.23-26.39-25.23Z"/>
  <polygon class="cls-1" points="132.56 1.95 132.56 133.55 151.06 133.55 151.06 11.98 160.37 73.63 177.33 73.63 164.73 1.95 132.56 1.95"/>
  <path d="m210.51.79c-17.21,0-26.87,10.47-26.87,28.7v76.45c0,18.43,9.66,28.84,26.93,28.84s27.14-10.41,27.14-28.84V29.49c0-18.23-9.73-28.7-27.21-28.7Zm8.5,107.94c0,5.99-3.33,9.93-8.3,9.93s-8.37-3.94-8.37-9.93V26.7c0-5.92,3.47-9.73,8.5-9.73s8.16,3.74,8.16,9.73v82.02Z"/>
  <polygon points="270.16 1.95 251.66 1.95 251.66 133.55 292.87 133.55 292.87 117.5 270.16 117.5 270.16 1.95"/>
  <polygon class="cls-1" points="318.54 123.52 318.54 1.95 300.04 1.95 300.04 133.55 332.21 133.55 344.81 61.87 327.85 61.87 318.54 123.52"/>
  <rect x="348.2" y="1.95" width="18.51" height="131.61"/>
</svg>